<?xml version="1.0" encoding="UTF-8" standalone="no"?>
<!-- Created with Inkscape (http://www.inkscape.org/) -->

<svg
   xmlns:dc="http://purl.org/dc/elements/1.1/"
   xmlns:cc="http://creativecommons.org/ns#"
   xmlns:rdf="http://www.w3.org/1999/02/22-rdf-syntax-ns#"
   xmlns:svg="http://www.w3.org/2000/svg"
   xmlns="http://www.w3.org/2000/svg"
   xmlns:sodipodi="http://sodipodi.sourceforge.net/DTD/sodipodi-0.dtd"
   xmlns:inkscape="http://www.inkscape.org/namespaces/inkscape"
   width="21.145317"
   height="70.290001"
   id="svg2"
   version="1.1"
   inkscape:version="0.48.4 r9939"
   sodipodi:docname="logo.svg">
  <defs
     id="defs4">
    <inkscape:perspective
       sodipodi:type="inkscape:persp3d"
       inkscape:vp_x="0 : 526.18109 : 1"
       inkscape:vp_y="0 : 1000 : 0"
       inkscape:vp_z="744.09448 : 526.18109 : 1"
       inkscape:persp3d-origin="372.04724 : 350.78739 : 1"
       id="perspective2473" />
    <inkscape:perspective
       sodipodi:type="inkscape:persp3d"
       inkscape:vp_x="0 : 526.18109 : 1"
       inkscape:vp_y="0 : 1000 : 0"
       inkscape:vp_z="744.09448 : 526.18109 : 1"
       inkscape:persp3d-origin="372.04724 : 350.78739 : 1"
       id="perspective2440" />
    <inkscape:perspective
       sodipodi:type="inkscape:persp3d"
       inkscape:vp_x="0 : 526.18109 : 1"
       inkscape:vp_y="0 : 1000 : 0"
       inkscape:vp_z="744.09448 : 526.18109 : 1"
       inkscape:persp3d-origin="372.04724 : 350.78739 : 1"
       id="perspective2397" />
    <inkscape:perspective
       id="perspective9600"
       inkscape:persp3d-origin="22.5 : 15 : 1"
       inkscape:vp_z="45 : 22.5 : 1"
       inkscape:vp_y="0 : 1000 : 0"
       inkscape:vp_x="0 : 22.5 : 1"
       sodipodi:type="inkscape:persp3d" />
    <clipPath
       clipPathUnits="userSpaceOnUse"
       id="clipPath4539">
      <rect
         style="fill:#ff0000;fill-opacity:1;stroke:none"
         id="rect4541"
         width="4.4275389"
         height="4.4275389"
         x="23.475176"
         y="4.8949976"
         transform="matrix(0.70710678,0.70710678,-0.70710678,0.70710678,0,0)" />
    </clipPath>
  </defs>
  <sodipodi:namedview
     id="base"
     pagecolor="#ffffff"
     bordercolor="#666666"
     borderopacity="1.0"
     inkscape:pageopacity="0.0"
     inkscape:pageshadow="2"
     inkscape:zoom="5.6568542"
     inkscape:cx="-20.733434"
     inkscape:cy="27.203362"
     inkscape:document-units="px"
     inkscape:current-layer="layer1"
     showgrid="false"
     showguides="true"
     inkscape:guide-bbox="true"
     inkscape:window-width="1366"
     inkscape:window-height="692"
     inkscape:window-x="0"
     inkscape:window-y="24"
     inkscape:window-maximized="1"
     width="200px"
     fit-margin-top="0"
     fit-margin-left="0"
     fit-margin-right="0"
     fit-margin-bottom="0">
    <sodipodi:guide
       orientation="0,1"
       position="-0.078125016,51.769528"
       id="guide3982" />
    <sodipodi:guide
       orientation="0,1"
       position="-7.5,41.999997"
       id="guide4445" />
    <sodipodi:guide
       orientation="1,0"
       position="4.5078057,33.366601"
       id="guide4527" />
    <sodipodi:guide
       orientation="1,0"
       position="20.550291,34.338873"
       id="guide4529" />
    <sodipodi:guide
       orientation="1,0"
       position="12.639534,26.207145"
       id="guide4553" />
  </sodipodi:namedview>
  <metadata
     id="metadata7">
    <rdf:RDF>
      <cc:Work
         rdf:about="">
        <dc:format>image/svg+xml</dc:format>
        <dc:type
           rdf:resource="http://purl.org/dc/dcmitype/StillImage" />
        <dc:title></dc:title>
      </cc:Work>
    </rdf:RDF>
  </metadata>
  <g
     inkscape:label="Capa 1"
     inkscape:groupmode="layer"
     id="layer1"
     transform="translate(-0.14508259,18.062914)">
    <rect
       style="fill:none;stroke-width:0.60000002;stroke-miterlimit:4;stroke-dasharray:none"
       id="rect3020"
       width="21.145317"
       height="21.145317"
       x="0.14508259"
       y="3.0817394" />
    <rect
       style="fill:none;stroke-width:0.60000002;stroke-miterlimit:4;stroke-dasharray:none"
       id="rect4004"
       width="21.145317"
       height="21.145317"
       x="0.14508259"
       y="3.0817394" />
    <rect
       y="-18.063446"
       x="0.14508259"
       height="21.145317"
       width="21.145317"
       id="rect4024"
       style="fill:none;stroke-width:0.60000002;stroke-miterlimit:4;stroke-dasharray:none" />
    <path
       sodipodi:nodetypes="ccccc"
       id="path4036"
       d="m 19.438806,-4.233883 0.04949,-9.178181 c -6.38811,13.141375 -3.318711,10.148381 -6.654297,-0.181381 -2.785099,10.269715 0.271761,13.359942 -6.8050325,0.106056 l -0.02076,9.120923"
       style="fill:#bfbfbf;fill-opacity:1;stroke:#bfbfbf;stroke-width:0.60000002;stroke-linecap:butt;stroke-linejoin:miter;stroke-miterlimit:4;stroke-opacity:1;stroke-dasharray:none"
       inkscape:connector-curvature="0" />
    <rect
       y="-18.063446"
       x="0.14508259"
       height="21.145317"
       width="21.145317"
       id="rect4084"
       style="fill:none;stroke-width:0.60000002;stroke-miterlimit:4;stroke-dasharray:none" />
    <g
       id="g4209"
       transform="translate(89.664905,-47.029815)" />
    <g
       id="g4211"
       transform="translate(89.664905,-47.029815)" />
    <g
       id="g4213"
       transform="translate(89.664905,-47.029815)" />
    <g
       id="g4215"
       transform="translate(89.664905,-47.029815)" />
    <g
       id="g4217"
       transform="translate(89.664905,-47.029815)" />
    <g
       id="g4219"
       transform="translate(89.664905,-47.029815)" />
    <g
       id="g4221"
       transform="translate(89.664905,-47.029815)" />
    <g
       id="g4223"
       transform="translate(89.664905,-47.029815)" />
    <g
       id="g4225"
       transform="translate(89.664905,-47.029815)" />
    <g
       id="g4227"
       transform="translate(89.664905,-47.029815)" />
    <g
       id="g4229"
       transform="translate(89.664905,-47.029815)" />
    <g
       id="g4231"
       transform="translate(89.664905,-47.029815)" />
    <g
       id="g4233"
       transform="translate(89.664905,-47.029815)" />
    <g
       id="g4235"
       transform="translate(89.664905,-47.029815)" />
    <g
       id="g4237"
       transform="translate(89.664905,-47.029815)" />
    <path
       transform="matrix(0.82397536,0,0,0.84580345,-0.04436077,-26.072987)"
       d="m 9,13 c 0,1.104569 -0.8954305,2 -2,2 -1.1045695,0 -2,-0.895431 -2,-2 0,-1.104569 0.8954305,-2 2,-2 1.1045695,0 2,0.895431 2,2 z"
       sodipodi:ry="2"
       sodipodi:rx="2"
       sodipodi:cy="13"
       sodipodi:cx="7"
       id="path4026"
       style="fill:#bfbfbf;fill-opacity:1;stroke:#bfbfbf;stroke-width:0.71871954;stroke-linecap:round;stroke-linejoin:round;stroke-miterlimit:4;stroke-opacity:1;stroke-dasharray:none"
       sodipodi:type="arc" />
    <rect
       style="fill:#bfbfbf;fill-opacity:1;stroke:#e3e3e3;stroke-width:0.60000002;stroke-linejoin:miter;stroke-miterlimit:4;stroke-opacity:1;stroke-dasharray:none"
       id="rect4531"
       width="13.280349"
       height="8.7062521"
       x="6.1775875"
       y="19.655951"
       ry="0.79549515"
       clip-path="url(#clipPath4539)"
       rx="0.79549515"
       transform="translate(-0.35355339,-22.588388)" />
    <path
       sodipodi:type="arc"
       style="fill:#bfbfbf;fill-opacity:1;stroke:#bfbfbf;stroke-width:0.71871954;stroke-linecap:round;stroke-linejoin:round;stroke-miterlimit:4;stroke-opacity:1;stroke-dasharray:none"
       id="path4533"
       sodipodi:cx="7"
       sodipodi:cy="13"
       sodipodi:rx="2"
       sodipodi:ry="2"
       d="m 9,13 c 0,1.104569 -0.8954305,2 -2,2 -1.1045695,0 -2,-0.895431 -2,-2 0,-1.104569 0.8954305,-2 2,-2 1.1045695,0 2,0.895431 2,2 z"
       transform="matrix(0.82397536,0,0,0.84580345,7.1150954,-26.824288)" />
    <path
       transform="matrix(0.82397536,0,0,0.84580345,13.920998,-25.984598)"
       d="m 9,13 c 0,1.104569 -0.8954305,2 -2,2 -1.1045695,0 -2,-0.895431 -2,-2 0,-1.104569 0.8954305,-2 2,-2 1.1045695,0 2,0.895431 2,2 z"
       sodipodi:ry="2"
       sodipodi:rx="2"
       sodipodi:cy="13"
       sodipodi:cx="7"
       id="path4535"
       style="fill:#bfbfbf;fill-opacity:1;stroke:#bfbfbf;stroke-width:0.71871954;stroke-linecap:round;stroke-linejoin:round;stroke-miterlimit:4;stroke-opacity:1;stroke-dasharray:none"
       sodipodi:type="arc" />
    <path
       inkscape:connector-curvature="0"
       style="fill:#6962ff;fill-opacity:1;stroke:#6962ff;stroke-width:0.60000002;stroke-linecap:butt;stroke-linejoin:miter;stroke-miterlimit:4;stroke-opacity:1;stroke-dasharray:none"
       d="M 19.438806,19.766117 19.4883,10.587936 C 13.100186,23.729311 16.169585,20.736317 12.833999,10.406555 10.0489,20.67627 13.10576,23.766497 6.0289665,10.512611 l -0.02076,9.120923"
       id="path4555"
       sodipodi:nodetypes="ccccc" />
    <path
       sodipodi:type="arc"
       style="fill:#f4ff4d;fill-opacity:1;stroke:#f4ff4d;stroke-width:0.71871954;stroke-linecap:round;stroke-linejoin:round;stroke-miterlimit:4;stroke-opacity:1;stroke-dasharray:none"
       id="path4557"
       sodipodi:cx="7"
       sodipodi:cy="13"
       sodipodi:rx="2"
       sodipodi:ry="2"
       d="m 9,13 c 0,1.104569 -0.8954305,2 -2,2 -1.1045695,0 -2,-0.895431 -2,-2 0,-1.104569 0.8954305,-2 2,-2 1.1045695,0 2,0.895431 2,2 z"
       transform="matrix(0.82397536,0,0,0.84580345,-0.04436077,-2.072987)" />
    <rect
       transform="translate(-0.35355339,1.411612)"
       rx="0.79549515"
       clip-path="url(#clipPath4539)"
       ry="0.79549515"
       y="19.655951"
       x="6.1775875"
       height="8.7062521"
       width="13.280349"
       id="rect4559"
       style="fill:#98d796;fill-opacity:1;stroke:none" />
    <path
       transform="matrix(0.82397536,0,0,0.84580345,7.1150954,-2.824287)"
       d="m 9,13 c 0,1.104569 -0.8954305,2 -2,2 -1.1045695,0 -2,-0.895431 -2,-2 0,-1.104569 0.8954305,-2 2,-2 1.1045695,0 2,0.895431 2,2 z"
       sodipodi:ry="2"
       sodipodi:rx="2"
       sodipodi:cy="13"
       sodipodi:cx="7"
       id="path4561"
       style="fill:#f4ff4d;fill-opacity:1;stroke:#f4ff4d;stroke-width:0.71871954;stroke-linecap:round;stroke-linejoin:round;stroke-miterlimit:4;stroke-opacity:1;stroke-dasharray:none"
       sodipodi:type="arc" />
    <path
       sodipodi:type="arc"
       style="fill:#f4ff4d;fill-opacity:1;stroke:#f4ff4d;stroke-width:0.71871954;stroke-linecap:round;stroke-linejoin:round;stroke-miterlimit:4;stroke-opacity:1;stroke-dasharray:none"
       id="path4563"
       sodipodi:cx="7"
       sodipodi:cy="13"
       sodipodi:rx="2"
       sodipodi:ry="2"
       d="m 9,13 c 0,1.104569 -0.8954305,2 -2,2 -1.1045695,0 -2,-0.895431 -2,-2 0,-1.104569 0.8954305,-2 2,-2 1.1045695,0 2,0.895431 2,2 z"
       transform="matrix(0.82397536,0,0,0.84580345,13.920998,-1.984598)" />
    <path
       sodipodi:nodetypes="ccccc"
       id="path4575"
       d="M 19.438806,43.766117 19.4883,34.587936 C 13.100186,47.729311 16.169585,44.736317 12.833999,34.406555 10.0489,44.67627 13.10576,47.766497 6.0289665,34.512611 l -0.02076,9.120923"
       style="fill:#f4ff4d;fill-opacity:1;stroke:#f4ff4d;stroke-width:0.60000002;stroke-linecap:butt;stroke-linejoin:miter;stroke-miterlimit:4;stroke-opacity:1;stroke-dasharray:none"
       inkscape:connector-curvature="0" />
    <path
       transform="matrix(0.82397536,0,0,0.84580345,-0.04436077,21.927013)"
       d="m 9,13 c 0,1.104569 -0.8954305,2 -2,2 -1.1045695,0 -2,-0.895431 -2,-2 0,-1.104569 0.8954305,-2 2,-2 1.1045695,0 2,0.895431 2,2 z"
       sodipodi:ry="2"
       sodipodi:rx="2"
       sodipodi:cy="13"
       sodipodi:cx="7"
       id="path4577"
       style="fill:#f4ff4d;fill-opacity:1;stroke:#f4ff4d;stroke-width:0.71871954;stroke-linecap:round;stroke-linejoin:round;stroke-miterlimit:4;stroke-opacity:1;stroke-dasharray:none"
       sodipodi:type="arc" />
    <rect
       style="fill:#f4ff4d;fill-opacity:1;stroke:none"
       id="rect4579"
       width="13.280349"
       height="8.7062521"
       x="6.1775875"
       y="19.655951"
       ry="0.79549515"
       clip-path="url(#clipPath4539)"
       rx="0.79549515"
       transform="translate(-0.35355339,25.411612)" />
    <path
       sodipodi:type="arc"
       style="fill:#f4ff4d;fill-opacity:1;stroke:#f4ff4d;stroke-width:0.71871954;stroke-linecap:round;stroke-linejoin:round;stroke-miterlimit:4;stroke-opacity:1;stroke-dasharray:none"
       id="path4581"
       sodipodi:cx="7"
       sodipodi:cy="13"
       sodipodi:rx="2"
       sodipodi:ry="2"
       d="m 9,13 c 0,1.104569 -0.8954305,2 -2,2 -1.1045695,0 -2,-0.895431 -2,-2 0,-1.104569 0.8954305,-2 2,-2 1.1045695,0 2,0.895431 2,2 z"
       transform="matrix(0.82397536,0,0,0.84580345,7.1150954,21.175713)" />
    <path
       transform="matrix(0.82397536,0,0,0.84580345,13.920998,22.015402)"
       d="m 9,13 c 0,1.104569 -0.8954305,2 -2,2 -1.1045695,0 -2,-0.895431 -2,-2 0,-1.104569 0.8954305,-2 2,-2 1.1045695,0 2,0.895431 2,2 z"
       sodipodi:ry="2"
       sodipodi:rx="2"
       sodipodi:cy="13"
       sodipodi:cx="7"
       id="path4583"
       style="fill:#f4ff4d;fill-opacity:1;stroke:#f4ff4d;stroke-width:0.71871954;stroke-linecap:round;stroke-linejoin:round;stroke-miterlimit:4;stroke-opacity:1;stroke-dasharray:none"
       sodipodi:type="arc" />
  </g>
  <style
     id="style3032"
     type="text/css">
	.st0{fill:#BBBBBB;}
	.st1{fill:#78B2F2;}
</style>
  <style
     id="style4197"
     type="text/css">
	.st0{fill:#BBBBBB;}
	.st1{fill:#78B2F2;}
</style>
  <style
     id="style4292"
     type="text/css">
	.st0{fill:#BBBBBB;}
	.st1{fill:#78B2F2;}
</style>
</svg>
